<svg xmlns="http://www.w3.org/2000/svg" width="1200" height="630" viewBox="0 0 1200 630"><defs><linearGradient id="bgGrad" x1="0" x2="1" y1="0" y2="1"><stop offset="0%" stop-color="#0a0a0a"/><stop offset="100%" stop-color="#111"/></linearGradient><linearGradient id="greenGlow" x1="0" x2="1" y1="0" y2="1"><stop offset="0%" stop-color="#22c55e"/><stop offset="100%" stop-color="#4ade80"/></linearGradient><filter id="glow"><feGaussianBlur result="blur" stdDeviation="8"/><feMerge><feMergeNode in="blur"/><feMergeNode in="SourceGraphic"/></feMerge></filter><filter id="subtleGlow"><feGaussianBlur result="blur" stdDeviation="20"/><feMerge><feMergeNode in="blur"/><feMergeNode in="SourceGraphic"/></feMerge></filter></defs><rect width="1200" height="630" fill="url(#bgGrad)"/><g opacity=".03"><line x1="0" x2="0" y1="0" y2="630" stroke="#fff" stroke-width="1"/><line x1="60" x2="60" y1="0" y2="630" stroke="#fff" stroke-width="1"/><line x1="120" x2="120" y1="0" y2="630" stroke="#fff" stroke-width="1"/><line x1="180" x2="180" y1="0" y2="630" stroke="#fff" stroke-width="1"/><line x1="240" x2="240" y1="0" y2="630" stroke="#fff" stroke-width="1"/><line x1="300" x2="300" y1="0" y2="630" stroke="#fff" stroke-width="1"/><line x1="360" x2="360" y1="0" y2="630" stroke="#fff" stroke-width="1"/><line x1="420" x2="420" y1="0" y2="630" stroke="#fff" stroke-width="1"/><line x1="480" x2="480" y1="0" y2="630" stroke="#fff" stroke-width="1"/><line x1="540" x2="540" y1="0" y2="630" stroke="#fff" stroke-width="1"/><line x1="600" x2="600" y1="0" y2="630" stroke="#fff" stroke-width="1"/><line x1="660" x2="660" y1="0" y2="630" stroke="#fff" stroke-width="1"/><line x1="720" x2="720" y1="0" y2="630" stroke="#fff" stroke-width="1"/><line x1="780" x2="780" y1="0" y2="630" stroke="#fff" stroke-width="1"/><line x1="840" x2="840" y1="0" y2="630" stroke="#fff" stroke-width="1"/><line x1="900" x2="900" y1="0" y2="630" stroke="#fff" stroke-width="1"/><line x1="960" x2="960" y1="0" y2="630" stroke="#fff" stroke-width="1"/><line x1="1020" x2="1020" y1="0" y2="630" stroke="#fff" stroke-width="1"/><line x1="1080" x2="1080" y1="0" y2="630" stroke="#fff" stroke-width="1"/><line x1="1140" x2="1140" y1="0" y2="630" stroke="#fff" stroke-width="1"/><line x1="1200" x2="1200" y1="0" y2="630" stroke="#fff" stroke-width="1"/><line x1="0" x2="1200" y1="60" y2="60" stroke="#fff" stroke-width="1"/><line x1="0" x2="1200" y1="120" y2="120" stroke="#fff" stroke-width="1"/><line x1="0" x2="1200" y1="180" y2="180" stroke="#fff" stroke-width="1"/><line x1="0" x2="1200" y1="240" y2="240" stroke="#fff" stroke-width="1"/><line x1="0" x2="1200" y1="300" y2="300" stroke="#fff" stroke-width="1"/><line x1="0" x2="1200" y1="360" y2="360" stroke="#fff" stroke-width="1"/><line x1="0" x2="1200" y1="420" y2="420" stroke="#fff" stroke-width="1"/><line x1="0" x2="1200" y1="480" y2="480" stroke="#fff" stroke-width="1"/><line x1="0" x2="1200" y1="540" y2="540" stroke="#fff" stroke-width="1"/></g><circle cx="950" cy="100" r="250" fill="#22c55e" filter="url(#subtleGlow)" opacity=".04"/><rect width="1198" height="628" x="1" y="1" fill="none" stroke="#222" stroke-width="1" rx="0"/><rect width="56" height="56" x="80" y="80" fill="url(#greenGlow)" rx="14"/><text x="108" y="116" fill="#fff" font-family="system-ui, -apple-system, 'Segoe UI', sans-serif" font-size="24" font-weight="800" text-anchor="middle">RP</text><text x="152" y="116" fill="#fff" font-family="system-ui, -apple-system, 'Segoe UI', sans-serif" font-size="36" font-weight="700">RolePatch</text><text x="80" y="200" fill="#fff" font-family="system-ui, -apple-system, 'Segoe UI', sans-serif" font-size="52" font-weight="800">AI Resume Tailoring</text><text x="80" y="260" fill="#9ca3af" font-family="system-ui, -apple-system, 'Segoe UI', sans-serif" font-size="28" font-weight="400">See Every Change</text><text x="80" y="260" fill="#9ca3af" font-family="system-ui, -apple-system, 'Segoe UI', sans-serif" font-size="28" font-weight="400"><tspan fill="#4ade80">See Every Change</tspan></text><rect width="1040" height="220" x="80" y="310" fill="#111" stroke="#1e1e1e" stroke-width="1.5" rx="12"/><circle cx="108" cy="336" r="5" fill="#ef4444" opacity=".8"/><circle cx="126" cy="336" r="5" fill="#eab308" opacity=".8"/><circle cx="144" cy="336" r="5" fill="#22c55e" opacity=".8"/><text x="180" y="341" fill="#555" font-family="'SF Mono', 'Fira Code', monospace" font-size="13">resume-diff.patch</text><line x1="80" x2="1120" y1="358" y2="358" stroke="#1e1e1e" stroke-width="1"/><text x="120" y="385" fill="#6b7280" font-family="'SF Mono', 'Fira Code', monospace" font-size="12" font-weight="600" letter-spacing="2" text-transform="uppercase">ORIGINAL</text><line x1="600" x2="600" y1="358" y2="530" stroke="#1e1e1e" stroke-dasharray="4 4" stroke-width="1"/><text x="640" y="385" fill="#6b7280" font-family="'SF Mono', 'Fira Code', monospace" font-size="12" font-weight="600" letter-spacing="2" text-transform="uppercase">TAILORED</text><rect width="488" height="32" x="96" y="400" fill="#7f1d1d" opacity=".3" rx="4"/><text x="108" y="421" fill="#fca5a5" font-family="'SF Mono', 'Fira Code', monospace" font-size="14"><tspan fill="#ef4444" opacity=".5">- </tspan>Managed a team of engineers</text><rect width="488" height="32" x="616" y="400" fill="#14532d" opacity=".3" rx="4"/><text x="628" y="421" fill="#86efac" font-family="'SF Mono', 'Fira Code', monospace" font-size="14"><tspan fill="#22c55e" opacity=".5">+ </tspan>Led 8 cross-functional engineers</text><rect width="488" height="32" x="96" y="440" fill="#7f1d1d" opacity=".3" rx="4"/><text x="108" y="461" fill="#fca5a5" font-family="'SF Mono', 'Fira Code', monospace" font-size="14"><tspan fill="#ef4444" opacity=".5">- </tspan>Worked on backend systems</text><rect width="488" height="32" x="616" y="440" fill="#14532d" opacity=".3" rx="4"/><text x="628" y="461" fill="#86efac" font-family="'SF Mono', 'Fira Code', monospace" font-size="14"><tspan fill="#22c55e" opacity=".5">+ </tspan>Architected distributed microservices</text><rect width="488" height="32" x="96" y="480" fill="#7f1d1d" opacity=".3" rx="4"/><text x="108" y="501" fill="#fca5a5" font-family="'SF Mono', 'Fira Code', monospace" font-size="14"><tspan fill="#ef4444" opacity=".5">- </tspan>Improved performance</text><rect width="488" height="32" x="616" y="480" fill="#14532d" opacity=".3" rx="4"/><text x="628" y="501" fill="#86efac" font-family="'SF Mono', 'Fira Code', monospace" font-size="14"><tspan fill="#22c55e" opacity=".5">+ </tspan>Reduced latency 40% via caching</text><rect width="200" height="48" x="80" y="558" fill="#0a0a0a" stroke="#22c55e" stroke-width="2" rx="24"/><text x="116" y="588" fill="#fff" font-family="system-ui, -apple-system, 'Segoe UI', sans-serif" font-size="16" font-weight="600">ATS:</text><text x="158" y="588" fill="#ef4444" font-family="system-ui, -apple-system, 'Segoe UI', sans-serif" font-size="16" font-weight="600">42</text><text x="183" y="588" fill="#6b7280" font-family="system-ui, -apple-system, 'Segoe UI', sans-serif" font-size="16" font-weight="600">\u2192</text><text x="210" y="588" fill="#22c55e" filter="url(#glow)" font-family="system-ui, -apple-system, 'Segoe UI', sans-serif" font-size="20" font-weight="800">87</text><text x="1120" y="588" fill="#4b5563" font-family="system-ui, -apple-system, 'Segoe UI', sans-serif" font-size="16" font-weight="500" text-anchor="end">rolepatch.com</text></svg>