<svg xmlns="http://www.w3.org/2000/svg" viewBox="0 0 32 32" role="img" aria-label="favicon">
  <rect width="32" height="32" rx="7" fill="#4f46e5"/>
  <path fill="#ffffff" d="M7.5 7.2h13c1.1 0 2 .6 2.5 1.6l2.1 4.8c.3.7.3 1.4 0 2.1l-2.1 4.8c-.5 1-1.4 1.6-2.5 1.6h-13c-1.3 0-2.3-1-2.3-2.3V9.5c0-1.3 1-2.3 2.3-2.3z"/>
      <path fill="#4f46e5" d="M10.2 11h4.2c1.7 0 2.9 1 2.9 2.6 0 1.3-.7 2.2-1.8 2.5l2.1 3.7h-2.5l-1.9-3.4h-1.2V19.8h-1.8zm1.8 1.7v2.2h2.1c.7 0 1.1-.4 1.1-1.1s-.4-1.1-1.1-1.1z"/>
      <path fill="#c7d2fe" d="M22.2 10.5l1.6 5.5-1.6 5.5h-1.7l1.4-4.7-1.4-4.7h1.7z"/>
</svg>